<svg viewBox="0 0 321.6 49.4"><title>agro.ru</title><path d="M20.6,9.8H33.3L53.5,57.7H39.4l-3.5-8.5H17.6l-3.4,8.5H.4ZM32.1,38.9,26.9,25.4,21.5,38.9Z" transform="translate(-0.4 -9.2)" style="fill:#8ebf31"/><path d="M53.4,33.9C53.4,20.1,64.3,9.2,79,9.2c8.4,0,14.3,2.6,19.3,6.9l-7.8,9.3A16.6,16.6,0,0,0,79.1,21c-6.9,0-12.2,5.7-12.2,13.1s5.4,13.2,12.9,13.2a13.2,13.2,0,0,0,7.6-2V39.5H78.1V29.9H99.9V51.3a32.2,32.2,0,0,1-20.6,7.3C64.5,58.6,53.4,48.4,53.4,33.9Z" transform="translate(-0.4 -9.2)" style="fill:#8ebf31"/><path d="M107.2,10.2h22.5c7.2,0,12.3,1.9,15.5,5.1s4.2,6.4,4.2,11.2c0,7.3-3.9,12.1-9.8,14.6l11.3,16.6H135.7l-9.5-14.4h-5.8V57.7H107.2ZM129.1,33c4.5,0,7-2.2,7-5.8s-2.7-5.6-7.1-5.6h-8.6V33Z" transform="translate(-0.4 -9.2)" style="fill:#8ebf31"/><path d="M154.4,33.9c0-13.6,11-24.7,25.6-24.7s25.5,10.9,25.5,24.7-11,24.7-25.6,24.7S154.4,47.7,154.4,33.9Zm37.7,0c0-6.8-5-12.8-12.2-12.8s-12,5.8-12,12.8,4.9,12.8,12.1,12.8S192.1,40.9,192.1,33.9Z" transform="translate(-0.4 -9.2)" style="fill:#8ebf31"/><path d="M209,44.4h13.5V57.7H209Z" transform="translate(-0.4 -9.2)" style="fill:#ff931a"/><path d="M229.6,10.2H252c7.3,0,12.3,1.9,15.5,5.1s4.2,6.4,4.2,11.2c0,7.3-3.8,12.1-9.7,14.6l11.3,16.6H258.1l-9.6-14.4h-5.7V57.7H229.6ZM251.4,33c4.5,0,7.1-2.2,7.1-5.8s-2.7-5.6-7.1-5.6h-8.6V33Z" transform="translate(-0.4 -9.2)" style="fill:#8ebf31"/><path d="M277.8,36.8V10.2h13.3V36.6c0,6.8,3.5,10.1,8.8,10.1s8.7-3.2,8.7-9.8V10.2H322V36.5c0,15.3-8.8,22-22.3,22S277.8,51.7,277.8,36.8Z" transform="translate(-0.4 -9.2)" style="fill:#8ebf31"/></svg>